<?xml version="1.0" encoding="UTF-8" standalone="no"?>
<svg  
   xmlns:rdf="http://www.w3.org/1999/02/22-rdf-syntax-ns#"
   xmlns:svg="http://www.w3.org/2000/svg"
   xmlns="http://www.w3.org/2000/svg"
   version="1.1"
   width="800"
   height="200">
<!-- R -->
<defs>
  <linearGradient
     y2="0%"
     x2="100%"
     y1="100%"
     x1="0%"
     id="blue">
    <stop        
       style="stop-color:rgb(76, 76, 255);stop-opacity:1"
       offset="100%" />
  </linearGradient>
  <linearGradient
     y2="0%"
     x2="100%"
     y1="100%"
     x1="0%"
     id="blue_bottom">
    <stop      
       style="stop-color:rgb(76, 76, 255);stop-opacity:0.8"
       offset="100%" />
  </linearGradient>
  <linearGradient
     y2="0%"
     x2="100%"
     y1="100%"
     x1="0%"
     id="blue_right">
    <stop       
       style="stop-color:rgb(76, 76, 255);stop-opacity:0.4"
       offset="100%" />
  </linearGradient>
  <linearGradient
     y2="0%"
     x2="100%"
     y1="100%"
     x1="0%"
     id="blue_grad">
    <stop       
       style="stop-color:rgb(76, 76, 255);stop-opacity:0.8"
       offset="25%" />
    <stop       
       style="stop-color:rgb(76, 76, 255);stop-opacity:0.4"
       offset="75%" />
  </linearGradient>
</defs>
<path   
   fill="url(#blue_bottom)"
   d="M 0 150 l 30 10 l 10 10 h -20 q -20 0 -20 -20 z" />
<path   
   fill="url(#blue_grad)"
   d="M 30 160 l 10 -10 l 10 10 q 0 10 -10 10 z" />
<path   
   fill="url(#blue_right)"
   d="M 40 80 l 10 10 l 0 70 l -10 -10 z" />
<path
   
   fill="url(#blue_bottom)"
   d="M 40 80 h 30 l 10 10 h -30 z" />
<path
   
   fill="url(#blue_grad)"
   d="M 70 80 l 10 -10 l 10 10 q 0 10 -10 10 z" />
<path
   
   fill="url(#blue_right)"
   d="M 80 40 l 10 10 v 30 l -10 -10 z" />
<path
   
   fill="url(#blue_bottom)"
   d="M 80 40 h 70 l 10 10 h -70 z" />
<path
   
   fill="url(#blue_grad)"
   d="M 150 40 l 10 -10 l 10 10 q 0 10 -10 10 z" />
<path
   
   fill="url(#blue_right)"
   d="M 170 10 v 30 l -10 -10 l -10 -30 q 20 0 20 20 z" />
<path   
   fill="url(#blue_right)"
   d="M 50 10 v 30 h -10 v-10 l -10 -30 q 20 0 20 20 z" />
<path   
   fill="url(#blue)"
   d="M 0 10 q 0 -10 10 -10 h 20 q 10 0 10 10 v 30 h 40 v -30 q 0 -10 10 -10 h 60 q 10 0 10 10 v 20 q 0 10 -10 10 h -70 v 30 q 0 10 -10 10 h -30 v 70 q 0 10 -10 10 h -20 q -10 0 -10 -10 z" />
<!-- F -->
<defs>
  <linearGradient
     y2="0%"
     x2="100%"
     y1="100%"
     x1="0%"
     id="green">
    <stop       
       style="stop-color:rgb(0, 164, 0);stop-opacity:1"
       offset="100%" />
  </linearGradient>
  <linearGradient
     y2="0%"
     x2="100%"
     y1="100%"
     x1="0%"
     id="green_bottom">
    <stop       
       style="stop-color:rgb(0, 164, 0);stop-opacity:0.8"
       offset="100%" />
  </linearGradient>
  <linearGradient
     y2="0%"
     x2="100%"
     y1="100%"
     x1="0%"
     id="green_right">
    <stop       
       style="stop-color:rgb(0, 164, 0);stop-opacity:0.4"
       offset="100%" />
  </linearGradient>
  <linearGradient
     y2="0%"
     x2="100%"
     y1="100%"
     x1="0%"
     id="green_grad">
    <stop       
       style="stop-color:rgb(0, 164, 0);stop-opacity:0.8"
       offset="25%" />
    <stop       
       style="stop-color:rgb(0, 164, 0);stop-opacity:0.4"
       offset="75%" />
  </linearGradient>
</defs>
<path   
   fill="url(#green_bottom)"
   d="M 200 110 h 40 v 20 h -20 q -20 0 -20 -20 z" />
<path   
   fill="url(#green_bottom)"
   d="M 240 150 l 30 10 l 10 10 h -20 q -20 0 -20 -20 z" />
<path   
   fill="url(#green_grad)"
   d="M 270 160 l 10 -10 l 10 10 q 0 10 -10 10 z" />
<path   
   fill="url(#green_right)"
   d="M 290 160 v -30 l -10 -10 v 30 z" />
<path   
   fill="url(#green_bottom)"
   d="M 280 120 h 30 l 10 10 h -30 z" />
<path   
   fill="url(#green_grad)"
   d="M 310 120 l 10 -10 l 10 10 q 0 10 -10 10 z" />
<path   
   fill="url(#green_right)"
   d="M 330 90 v 30 l -10 -10 l -10 -30 q 20 0 20 20 z" />
<path   
   fill="url(#green_right)"
   d="M 280 40 l 10 10  v 30 h -10 z" />
<path   
   fill="url(#green_bottom)"
   d="M 280 40 h 70 l 10 10 h -70 z" />
<path   
   fill="url(#green_grad)"
   d="M 350 40 l 10 -10 l 10 10 q 0 10 -10 10 z" />
<path   
   fill="url(#green_right)"
   d="M 370 10 v 30 l -10 -10 l -10 -30 q 20 0 20 20 z" />
<path   
   fill="url(#green)"
   d="M 350 0 q 10 0 10 10 v 20 q 0 10 -10 10 h -70 v 40 h 30 q 10 0 10 10 v 20 q 0 10 -10 10 h -30 v 30 q 0 10 -10 10 h -20 q -10 0 -10 -10 v -30 h -30 q -10 0 -10 -10 v -20 q 0 -10 10 -10 h 30 v -30 q 0 -10 10 -10 h 30 v -30 q 0 -10 10 -10 z" />
<!-- V -->
<defs
   >
  <linearGradient
     y2="0%"
     x2="100%"
     y1="100%"
     x1="0%"
     id="red">
    <stop       
       style="stop-color:rgb(255, 28, 28);stop-opacity:1"
       offset="100%" />
  </linearGradient>
  <linearGradient
     y2="0%"
     x2="100%"
     y1="100%"
     x1="0%"
     id="red_bottom">
    <stop       
       style="stop-color:rgb(255, 28, 28);stop-opacity:0.8"
       offset="100%" />
  </linearGradient>
  <linearGradient
     y2="0%"
     x2="100%"
     y1="100%"
     x1="0%"
     id="red_right">
    <stop       
       style="stop-color:rgb(255, 28, 28);stop-opacity:0.4"
       offset="100%" />
  </linearGradient>
  <linearGradient
     y2="0%"
     x2="100%"
     y1="100%"
     x1="0%"
     id="red_grad">
    <stop       
       style="stop-color:rgb(255, 28, 28);stop-opacity:0.8"
       offset="25%" />
    <stop       
       style="stop-color:rgb(255, 28, 28);stop-opacity:0.4"
       offset="75%" />
  </linearGradient>
</defs>
<path   
   fill="url(#red_bottom)"
   d="M 400 70 h 40 v 20 h -20 q -20 0 -20 -20 z" />
<path   
   fill="url(#red_bottom)"
   d="M 440 110 h 40 v 20 h -20 q -20 0 -20 -20 z" />
<path   
   fill="url(#red_bottom)"
   d="M 480 150 l 30 10 l 10 10 h -20 q -20 0 -20 -20 z" />
<path   
   fill="url(#red_grad)"
   d="M 510 160 l 10 -10 l 10 10 q 0 10 -10 10 z" />
<path   
   fill="url(#red_right)"
   d="M 530 160 v -30 l -10 -10 v 30 z" />
<path   
   fill="url(#red_bottom)"
   d="M 520 120 h 30 l 10 10 h -30 z" />
<path   
   fill="url(#red_grad)"
   d="M 550 120 l 10 -10 l 10 10 q 0 10 -10 10 z" />
<path   
   fill="url(#red_right)"
   d="M 570 40 v 80 l -10 -10 v -80 z" />
<path   
   fill="url(#red_right)"
   d="M 570 10 v 30 l -10 -10 l -10 -30 q 20 0 20 20 z" />
<path
   fill="url(#red_right)"
   d="M 490 90 v 30 h -10 v-10 l -10 -30 q 20 0 20 20 z" />
<path   
   fill="url(#red_right)"
   d="M 450 40 v 80 l -10 -10 v -80 z" />
<path   
   fill="url(#red_right)"
   d="M 450 10 v 30 l -10 -10 l -10 -30 q 20 0 20 20 z" />
<path   
   fill="url(#red)"
   d="M 400 10 q 0 -10 10 -10 h 20 q 10 0 10 10 v 70 h 30 q 10 0 10 10 v 30 h 40 v -110 q 0 -10 10 -10 h 20 q 10 0 10 10 v 100 q 0 10 -10 10 h -30 v 30 q 0 10 -10 10 h -20 q -10 0 -10 -10 v -30 h -30 q -10 0 -10 -10 v -30 h -30 q -10 0 -10 -10 z" />
<!-- 5 -->
<path   
   fill="rgb(255, 255, 0 )"
   d="M 600 0 h 80 v 40 h -20 v 120 h -60 v -40 h 40 v -40 h -40 z" />
<!-- s -->
<path   
   fill="rgb(255, 255, 0)"
   d="M 720 40 v -40 h 60 v 40 h -60 v 40 h -20 v -40 z M 760 120 v -40 h 20 v 40 z v 40 h -60 v -40  z" />
</svg>
